<?xml version="1.0" standalone="no"?>
<!DOCTYPE svg PUBLIC "-//W3C//DTD SVG 20010904//EN"
 "http://www.w3.org/TR/2001/REC-SVG-20010904/DTD/svg10.dtd">
<svg version="1.0" xmlns="http://www.w3.org/2000/svg"
 width="123.000000pt" height="127.000000pt" viewBox="0 0 123.000000 127.000000"
 preserveAspectRatio="xMidYMid meet">

<g transform="translate(0.000000,127.000000) scale(0.100000,-0.100000)"
fill="#000000" stroke="none">
<path d="M548 1254 c-102 -24 -196 -79 -278 -163 -148 -149 -175 -236 -185
-601 -8 -271 -12 -295 -61 -341 -20 -18 -24 -32 -24 -76 l0 -53 593 2 592 3 3
96 3 97 -318 4 c-295 5 -322 6 -377 26 -84 31 -133 62 -194 123 -151 151 -181
411 -68 604 37 62 138 152 208 185 68 31 160 50 249 50 64 0 91 18 69 45 -16
19 -132 19 -212 -1z"/>
<path d="M518 1011 c-26 -30 -58 -114 -58 -151 0 -43 36 -117 79 -161 71 -72
104 -79 403 -79 l248 0 0 94 c0 64 -4 97 -13 104 -8 7 -104 12 -263 14 l-251
3 -37 28 c-50 39 -67 68 -75 129 l-6 52 -27 -33z"/>
<path d="M346 954 c-123 -160 -109 -367 34 -512 109 -110 157 -122 523 -122
l287 0 0 104 0 105 -292 3 c-288 3 -294 3 -343 28 -70 34 -139 108 -164 175
-23 60 -28 175 -12 233 5 17 8 32 6 32 -2 0 -20 -21 -39 -46z"/>
</g>
</svg>
